<svg width="138" height="64" viewBox="0 0 138 64" fill="none" xmlns="http://www.w3.org/2000/svg">
<circle cx="3.38235" cy="3.38235" r="3.38235" fill="#00AEEF"/>
<circle cx="59.5288" cy="3.38235" r="3.38235" fill="#00AEEF"/>
<circle cx="3.38235" cy="22.3238" r="3.38235" fill="#00AEEF"/>
<circle cx="59.5288" cy="22.3238" r="3.38235" fill="#00AEEF"/>
<circle cx="3.38235" cy="41.2652" r="3.38235" fill="#00AEEF"/>
<circle cx="59.5288" cy="41.2652" r="3.38235" fill="#00AEEF"/>
<circle cx="3.38235" cy="60.2066" r="3.38235" fill="#00AEEF"/>
<circle cx="59.5288" cy="60.2066" r="3.38235" fill="#00AEEF"/>
<circle cx="40.5874" cy="3.38235" r="3.38235" fill="#00AEEF"/>
<circle cx="40.5874" cy="22.3238" r="3.38235" fill="#00AEEF"/>
<circle cx="40.5874" cy="41.2652" r="3.38235" fill="#00AEEF"/>
<circle cx="40.5874" cy="60.2066" r="3.38235" fill="#00AEEF"/>
<circle cx="22.3238" cy="3.38235" r="3.38235" fill="#00AEEF"/>
<circle cx="22.3238" cy="22.3238" r="3.38235" fill="#00AEEF"/>
<circle cx="22.3238" cy="41.2652" r="3.38235" fill="#00AEEF"/>
<circle cx="22.3238" cy="60.2066" r="3.38235" fill="#00AEEF"/>
<circle cx="78.4702" cy="3.38235" r="3.38235" fill="#00AEEF"/>
<circle cx="134.617" cy="3.38235" r="3.38235" fill="#00AEEF"/>
<circle cx="78.4702" cy="22.3238" r="3.38235" fill="#00AEEF"/>
<circle cx="134.617" cy="22.3238" r="3.38235" fill="#00AEEF"/>
<circle cx="78.4702" cy="41.2652" r="3.38235" fill="#00AEEF"/>
<circle cx="134.617" cy="41.2652" r="3.38235" fill="#00AEEF"/>
<circle cx="78.4702" cy="60.2066" r="3.38235" fill="#00AEEF"/>
<circle cx="134.617" cy="60.2066" r="3.38235" fill="#00AEEF"/>
<circle cx="115.677" cy="3.38235" r="3.38235" fill="#00AEEF"/>
<circle cx="115.677" cy="22.3238" r="3.38235" fill="#00AEEF"/>
<circle cx="115.677" cy="41.2652" r="3.38235" fill="#00AEEF"/>
<circle cx="115.677" cy="60.2066" r="3.38235" fill="#00AEEF"/>
<circle cx="97.4117" cy="3.38235" r="3.38235" fill="#00AEEF"/>
<circle cx="97.4117" cy="22.3238" r="3.38235" fill="#00AEEF"/>
<circle cx="97.4117" cy="41.2652" r="3.38235" fill="#00AEEF"/>
<circle cx="97.4117" cy="60.2066" r="3.38235" fill="#00AEEF"/>
</svg>
