<svg width="13" height="13" viewBox="0 0 13 13" fill="none" xmlns="http://www.w3.org/2000/svg">
<path fill-rule="evenodd" clip-rule="evenodd" d="M1.03249 2.1575C0.753906 2.6938 0.753906 3.39838 0.753906 4.80753V8.71709C0.753906 10.1262 0.753906 10.8308 1.03249 11.3671C1.26725 11.8191 1.63574 12.1875 2.08768 12.4223C2.62397 12.7009 3.32855 12.7009 4.7377 12.7009H8.64727C10.0564 12.7009 10.761 12.7009 11.2973 12.4223C11.7492 12.1875 12.1177 11.8191 12.3525 11.3671C12.6311 10.8308 12.6311 10.1262 12.6311 8.71709V4.80753C12.6311 3.39838 12.6311 2.6938 12.3525 2.1575C12.1177 1.70557 11.7492 1.33708 11.2973 1.10232C10.761 0.82373 10.0564 0.82373 8.64727 0.82373H4.7377C3.32855 0.82373 2.62397 0.82373 2.08768 1.10232C1.63574 1.33708 1.26725 1.70557 1.03249 2.1575ZM9.26613 6.76228L9.00219 8.41189H7.68251V12.7009H5.70298V8.41189H4.21833V6.76228H5.70298V5.4426C5.70298 3.95795 6.65975 3.13315 8.01243 3.13315C8.44133 3.13315 8.90321 3.19913 9.33211 3.26512V4.78275H8.57329C7.84747 4.78275 7.68251 5.14567 7.68251 5.60756V6.76228H9.26613Z" fill="white"/>
</svg>
