<svg width="77" height="76" viewBox="0 0 77 76" fill="none" xmlns="http://www.w3.org/2000/svg">
<path fill-rule="evenodd" clip-rule="evenodd" d="M38.1146 3.16797C18.8771 3.16797 3.28125 18.7638 3.28125 38.0013C3.28125 57.2388 18.8771 72.8346 38.1146 72.8346C57.3521 72.8346 72.9479 57.2388 72.9479 38.0013C72.9479 18.7638 57.3521 3.16797 38.1146 3.16797ZM53.2132 32.1113C53.4913 31.7935 53.7029 31.4233 53.8358 31.0225C53.9686 30.6217 54.02 30.1984 53.9868 29.7774C53.9536 29.3565 53.8366 28.9464 53.6426 28.5714C53.4486 28.1963 53.1815 27.8639 52.8571 27.5935C52.5328 27.3232 52.1576 27.1205 51.7537 26.9973C51.3498 26.8741 50.9254 26.833 50.5054 26.8763C50.0854 26.9195 49.6782 27.0464 49.3079 27.2493C48.9377 27.4522 48.6117 27.7272 48.3492 28.058L34.7326 44.3948L27.6867 37.3458C27.0895 36.769 26.2896 36.4498 25.4593 36.457C24.629 36.4642 23.8348 36.7972 23.2477 37.3844C22.6605 37.9715 22.3275 38.7657 22.3203 39.596C22.3131 40.4263 22.6322 41.2262 23.2091 41.8235L32.7091 51.3235C33.0202 51.6344 33.3927 51.8771 33.8029 52.0362C34.213 52.1952 34.6518 52.267 35.0913 52.247C35.5307 52.2271 35.9612 52.1158 36.3552 51.9202C36.7493 51.7247 37.0982 51.4492 37.3799 51.1113L53.2132 32.1113Z" fill="#27AE60"/>
</svg>
