<svg width="13" height="13" viewBox="0 0 13 13" fill="none" xmlns="http://www.w3.org/2000/svg">
<path fill-rule="evenodd" clip-rule="evenodd" d="M6.34261 0.0959473C4.6349 0.0959473 4.42077 0.103186 3.7501 0.133787C3.08082 0.164312 2.62373 0.270617 2.22378 0.426067C1.81029 0.586734 1.45963 0.801738 1.11004 1.1513C0.760478 1.50089 0.545474 1.85155 0.384807 2.26504C0.229357 2.66499 0.123053 3.12208 0.0925268 3.79136C0.0619259 4.46203 0.0546875 4.67616 0.0546875 6.38387C0.0546875 8.09155 0.0619259 8.30568 0.0925268 8.97635C0.123053 9.64563 0.229357 10.1027 0.384807 10.5027C0.545474 10.9162 0.760478 11.2668 1.11004 11.6164C1.45963 11.966 1.81029 12.181 2.22378 12.3417C2.62373 12.4971 3.08082 12.6034 3.7501 12.6339C4.42077 12.6645 4.6349 12.6718 6.34261 12.6718C8.05029 12.6718 8.26442 12.6645 8.93509 12.6339C9.60437 12.6034 10.0615 12.4971 10.4614 12.3417C10.8749 12.181 11.2256 11.966 11.5751 11.6164C11.9247 11.2668 12.1397 10.9162 12.3004 10.5027C12.4558 10.1027 12.5621 9.64563 12.5927 8.97635C12.6233 8.30568 12.6305 8.09155 12.6305 6.38387C12.6305 4.67616 12.6233 4.46203 12.5927 3.79136C12.5621 3.12208 12.4558 2.66499 12.3004 2.26504C12.1397 1.85155 11.9247 1.50089 11.5751 1.1513C11.2256 0.801738 10.8749 0.586734 10.4614 0.426067C10.0615 0.270617 9.60437 0.164312 8.93509 0.133787C8.26442 0.103186 8.05029 0.0959473 6.34261 0.0959473ZM6.3428 1.22855C8.02173 1.22855 8.22061 1.23496 8.88364 1.26521C9.49671 1.29317 9.82965 1.3956 10.0512 1.48171C10.3447 1.59578 10.5542 1.73204 10.7742 1.95208C10.9942 2.17211 11.1305 2.38157 11.2446 2.67507C11.3307 2.89664 11.4331 3.22958 11.4611 3.84265C11.4913 4.50568 11.4977 4.70456 11.4977 6.38351C11.4977 8.06244 11.4913 8.26132 11.4611 8.92436C11.4331 9.53742 11.3307 9.87036 11.2446 10.0919C11.1305 10.3854 10.9942 10.5949 10.7742 10.8149C10.5542 11.035 10.3447 11.1712 10.0512 11.2853C9.82965 11.3714 9.49671 11.4738 8.88364 11.5018C8.22071 11.532 8.02185 11.5385 6.3428 11.5385C4.66372 11.5385 4.46489 11.532 3.80193 11.5018C3.18887 11.4738 2.85593 11.3714 2.63436 11.2853C2.34086 11.1712 2.13139 11.035 1.91137 10.8149C1.69135 10.5949 1.55507 10.3854 1.441 10.0919C1.35489 9.87036 1.25245 9.53742 1.2245 8.92436C1.19425 8.26132 1.18783 8.06244 1.18783 6.38351C1.18783 4.70456 1.19425 4.50568 1.2245 3.84265C1.25245 3.22958 1.35489 2.89664 1.441 2.67507C1.55507 2.38157 1.69132 2.17211 1.91137 1.95208C2.13139 1.73204 2.34086 1.59578 2.63436 1.48171C2.85593 1.3956 3.18887 1.29317 3.80193 1.26521C4.46497 1.23496 4.66385 1.22855 6.3428 1.22855ZM3.11391 6.38425C3.11391 4.60094 4.55954 3.15531 6.34285 3.15531C8.12613 3.15531 9.57176 4.60094 9.57176 6.38425C9.57176 8.16753 8.12613 9.61316 6.34285 9.61316C4.55954 9.61316 3.11391 8.16753 3.11391 6.38425ZM6.34282 8.47984C5.18524 8.47984 4.24684 7.54144 4.24684 6.38388C4.24684 5.22629 5.18524 4.2879 6.34282 4.2879C7.50039 4.2879 8.43878 5.22629 8.43878 6.38388C8.43878 7.54144 7.50039 8.47984 6.34282 8.47984ZM9.69923 3.78154C10.116 3.78154 10.4538 3.44373 10.4538 3.027C10.4538 2.61027 10.116 2.27244 9.69923 2.27244C9.28253 2.27244 8.94469 2.61027 8.94469 3.027C8.94469 3.44373 9.28253 3.78154 9.69923 3.78154Z" fill="white"/>
</svg>
