<svg width="106" height="106" viewBox="0 0 106 106" fill="none" xmlns="http://www.w3.org/2000/svg">
<path fill-rule="evenodd" clip-rule="evenodd" d="M102.931 58.3295C106.138 32.2599 86.8873 5.11793 58.017 1.31785C28.0745 -1.94085 5.61753 20.3183 2.41088 46.9293C-1.33714 76.799 21.1198 100.682 46.7938 103.941C75.664 107.2 98.6519 87.1165 102.931 58.3295Z" fill="#2AACE2"/>
<path fill-rule="evenodd" clip-rule="evenodd" d="M99.3806 57.8507C102.587 29.6156 81.7336 7.34606 58.2147 4.63915C30.4065 1.38045 7.94952 22.5568 5.81523 46.9919C3.13956 75.7684 22.9208 98.0379 47.5225 100.745C75.3203 103.473 96.7049 81.7444 99.3806 57.8507Z" fill="white"/>
<path fill-rule="evenodd" clip-rule="evenodd" d="M78.3602 15.8831C70.3436 9.90712 56.4343 6.10704 45.742 8.28298C37.184 9.90712 32.374 12.0831 26.4917 16.4245C13.6443 26.8669 7.65785 40.2661 8.84473 57.1531C10.448 79.964 32.905 102.223 60.1719 96.7885C76.7465 94.0712 87.9802 83.2123 93.3211 69.6361C98.1311 58.2359 97.6001 43.0251 91.7178 31.6249C89.0005 25.1699 83.3784 20.4849 78.3602 15.8831Z" fill="#00AEEF"/>
<path fill-rule="evenodd" clip-rule="evenodd" d="M14.6748 73.2799C19.4848 74.9145 24.8361 79.7974 35.5284 78.7146C42.4831 78.1732 48.3654 72.1972 51.5721 68.9385C52.103 74.9145 43.0141 83.5974 35.5284 85.232C25.9085 86.3147 16.2781 79.256 14.6748 73.2799Z" fill="white"/>
<path fill-rule="evenodd" clip-rule="evenodd" d="M24.8361 29.8443C14.8726 26.4711 10.8643 39.2769 11.4681 47.2206C12.5405 62.4209 26.9704 71.6557 40.3383 65.6796C48.8963 61.8795 52.6339 56.4449 52.6339 44.5033C52.103 33.103 52.6339 21.151 52.103 9.75073H45.1483C44.6173 17.8923 45.1483 27.127 45.1483 34.7272C45.1483 42.3273 46.7516 52.1034 42.4726 56.4449C33.3837 65.6796 13.061 60.7864 14.1334 44.5033C17.34 46.6792 20.0157 49.9379 25.3566 47.762C34.456 44.5033 33.925 32.0099 24.8361 29.8443Z" fill="white"/>
<path fill-rule="evenodd" clip-rule="evenodd" d="M10.3955 57.5276C10.3955 67.3037 20.5568 75.9866 29.6458 76.528C40.3381 77.6108 50.4994 69.4692 51.5718 60.2345C48.8961 61.3173 48.8961 64.0346 42.4828 67.2933C38.7348 69.4692 34.9971 70.0106 29.6458 70.0106C15.7469 69.4796 13.6022 59.7035 10.3955 57.5276Z" fill="white"/>
<path fill-rule="evenodd" clip-rule="evenodd" d="M59.5884 95.5388C60.1194 87.3973 59.5884 78.704 59.5884 70.5624C59.5884 62.4209 58.516 53.7275 63.326 49.3861C71.884 40.1513 92.7376 45.586 91.1343 61.8795C84.721 54.8207 78.2973 56.9966 75.0907 61.8795C66.5327 74.3729 89.531 86.3145 93.7996 64.5968C94.8719 56.4552 92.1962 49.3965 88.4482 45.0446C79.3593 34.7271 61.7123 36.903 55.299 48.3033C52.0923 54.2793 53.1647 63.5036 53.1647 71.1142C53.1647 79.2557 52.6337 87.4077 53.1647 95.5493H59.5884V95.5388Z" fill="white"/>
<path fill-rule="evenodd" clip-rule="evenodd" d="M54.2373 45.0449C54.7683 35.8101 65.471 28.21 76.1633 29.2927C85.7832 30.3755 94.8826 38.5275 94.8826 48.2932C91.145 46.669 89.0003 36.3515 76.1633 35.7997C61.7229 34.7274 58.5163 41.7862 54.2373 45.0449Z" fill="white"/>
<path fill-rule="evenodd" clip-rule="evenodd" d="M76.163 21.1509C82.3576 21.9421 88.9271 27.1269 91.1343 33.0925C88.4586 32.0097 86.3243 29.8338 82.0453 28.751C78.8387 27.1269 74.5597 26.5751 70.2807 27.1269C60.6607 27.6683 57.9851 34.7271 53.7061 36.903C55.9028 26.8458 65.8247 18.5272 76.163 21.1509Z" fill="white"/>
</svg>
