<svg width="470" height="444" viewBox="0 0 470 444" fill="none" xmlns="http://www.w3.org/2000/svg">
<path d="M211.253 373.077L200.31 383.152L209.007 368.559C202.155 356.133 190.948 345.395 190.948 345.395C190.948 345.395 167.699 367.669 167.699 385.178C167.699 402.688 178.108 408.801 190.948 408.801C203.788 408.801 214.197 402.688 214.197 385.178C214.197 381.281 213.044 377.148 211.253 373.077Z" fill="#F2F2F2"/>
<path d="M197.494 383.695V384.558C197.443 394.59 195.751 402.418 192.431 407.929C192.384 408.011 192.333 408.087 192.286 408.169L191.914 407.942L191.56 407.72C195.243 401.768 196.546 393.356 196.593 384.605C196.597 384.323 196.601 384.037 196.597 383.751C196.584 380.047 196.358 376.3 195.995 372.659C195.969 372.377 195.939 372.091 195.909 371.805C195.405 367.002 194.679 362.414 193.935 358.427C193.884 358.145 193.829 357.863 193.773 357.586C192.487 350.844 191.175 345.96 190.876 344.879C190.842 344.747 190.821 344.674 190.816 344.657L191.222 344.542L191.227 344.537L191.637 344.422C191.641 344.439 191.714 344.683 191.833 345.135C192.29 346.827 193.478 351.42 194.645 357.479C194.696 357.752 194.751 358.034 194.803 358.316C195.409 361.551 196.003 365.165 196.473 368.959C196.593 369.912 196.7 370.852 196.794 371.779C196.828 372.065 196.858 372.352 196.883 372.634C197.277 376.569 197.48 380.256 197.494 383.695Z" fill="white"/>
<path d="M194.645 357.479C194.358 357.517 194.068 357.556 193.773 357.586C192.972 357.668 192.168 357.709 191.363 357.71C187.933 357.714 184.546 356.949 181.451 355.471C181.271 355.697 181.092 355.924 180.908 356.154C184.164 357.744 187.74 358.568 191.363 358.564C192.222 358.564 193.081 358.518 193.935 358.427C194.226 358.397 194.516 358.359 194.803 358.316C197.166 357.977 199.463 357.281 201.617 356.253C201.434 356.018 201.254 355.787 201.079 355.56C199.04 356.513 196.872 357.16 194.645 357.479V357.479Z" fill="white"/>
<path d="M196.794 371.78C196.499 371.797 196.205 371.806 195.91 371.806C195.82 371.81 195.726 371.81 195.636 371.81C191.92 371.81 188.258 370.912 184.964 369.191C181.67 367.47 178.841 364.978 176.717 361.928C176.547 362.18 176.376 362.432 176.209 362.688C178.422 365.775 181.338 368.29 184.717 370.025C188.095 371.76 191.839 372.665 195.636 372.665C195.756 372.665 195.876 372.665 195.995 372.66C196.294 372.656 196.589 372.648 196.884 372.635C201.446 372.401 205.844 370.858 209.552 368.191C209.415 367.939 209.279 367.687 209.138 367.435C205.534 370.054 201.244 371.564 196.794 371.78V371.78Z" fill="white"/>
<path d="M197.495 383.697C197.195 383.722 196.896 383.739 196.597 383.752C196.277 383.765 195.956 383.773 195.636 383.773C190.642 383.768 185.784 382.144 181.79 379.147C177.795 376.149 174.879 371.938 173.478 367.145C173.286 367.491 173.094 367.832 172.91 368.179C174.489 372.961 177.534 377.124 181.614 380.077C185.693 383.03 190.6 384.623 195.636 384.628C195.956 384.628 196.277 384.624 196.593 384.607C196.896 384.598 197.195 384.581 197.495 384.56C203.536 384.087 209.171 381.336 213.26 376.865C213.171 376.548 213.068 376.237 212.966 375.92C209.016 380.426 203.466 383.215 197.495 383.697V383.697Z" fill="white"/>
<path d="M468.626 22.6089H49.61C49.449 22.6083 49.2949 22.544 49.1813 22.43C49.0677 22.316 49.0039 22.1617 49.0039 22.0007C49.0039 21.8398 49.0677 21.6854 49.1813 21.5715C49.2949 21.4575 49.449 21.3931 49.61 21.3926H468.626C468.787 21.3931 468.941 21.4575 469.055 21.5715C469.168 21.6854 469.232 21.8398 469.232 22.0007C469.232 22.1617 469.168 22.316 469.055 22.43C468.941 22.544 468.787 22.6083 468.626 22.6089Z" fill="#CACACA"/>
<path d="M63.2951 14.0942C66.9897 14.0942 69.9848 11.0991 69.9848 7.4045C69.9848 3.70991 66.9897 0.714844 63.2951 0.714844C59.6005 0.714844 56.6055 3.70991 56.6055 7.4045C56.6055 11.0991 59.6005 14.0942 63.2951 14.0942Z" fill="#E9993E"/>
<path d="M86.4045 14.0942C90.0991 14.0942 93.0942 11.0991 93.0942 7.4045C93.0942 3.70991 90.0991 0.714844 86.4045 0.714844C82.7099 0.714844 79.7148 3.70991 79.7148 7.4045C79.7148 11.0991 82.7099 14.0942 86.4045 14.0942Z" fill="#4EAAE9"/>
<path d="M109.518 14.0942C113.212 14.0942 116.207 11.0991 116.207 7.4045C116.207 3.70991 113.212 0.714844 109.518 0.714844C105.823 0.714844 102.828 3.70991 102.828 7.4045C102.828 11.0991 105.823 14.0942 109.518 14.0942Z" fill="#3F3D56"/>
<path d="M454.779 4.8076H438.359C438.037 4.80649 437.728 4.67786 437.501 4.44988C437.274 4.2219 437.146 3.91316 437.146 3.5913C437.146 3.26945 437.274 2.96071 437.501 2.73273C437.728 2.50475 438.037 2.37612 438.359 2.37501H454.779C454.939 2.37445 455.097 2.4055 455.245 2.46638C455.393 2.52726 455.528 2.61677 455.641 2.72976C455.755 2.84276 455.845 2.97703 455.906 3.12487C455.968 3.27271 455.999 3.43122 455.999 3.5913C455.999 3.75139 455.968 3.9099 455.906 4.05774C455.845 4.20558 455.755 4.33985 455.641 4.45285C455.528 4.56584 455.393 4.65535 455.245 4.71623C455.097 4.77711 454.939 4.80816 454.779 4.8076Z" fill="#3F3D56"/>
<path d="M454.779 9.3662H438.359C438.037 9.36508 437.728 9.23645 437.501 9.00847C437.274 8.78049 437.146 8.47176 437.146 8.1499C437.146 7.82804 437.274 7.5193 437.501 7.29132C437.728 7.06334 438.037 6.93471 438.359 6.9336H454.779C454.939 6.93305 455.097 6.9641 455.245 7.02497C455.393 7.08585 455.528 7.17536 455.641 7.28836C455.755 7.40136 455.845 7.53562 455.906 7.68347C455.968 7.83131 455.999 7.98982 455.999 8.1499C455.999 8.30998 455.968 8.46849 455.906 8.61633C455.845 8.76417 455.755 8.89844 455.641 9.01144C455.528 9.12444 455.393 9.21395 455.245 9.27482C455.097 9.3357 454.939 9.36675 454.779 9.3662Z" fill="#3F3D56"/>
<path d="M454.779 13.9287H438.359C438.037 13.9276 437.728 13.799 437.501 13.571C437.274 13.343 437.146 13.0343 437.146 12.7124C437.146 12.3905 437.274 12.0818 437.501 11.8538C437.728 11.6259 438.037 11.4972 438.359 11.4961H454.779C454.939 11.4955 455.097 11.5266 455.245 11.5875C455.393 11.6484 455.528 11.7379 455.641 11.8509C455.755 11.9639 455.845 12.0981 455.906 12.246C455.968 12.3938 455.999 12.5523 455.999 12.7124C455.999 12.8725 455.968 13.031 455.906 13.1788C455.845 13.3267 455.755 13.461 455.641 13.574C455.528 13.6869 455.393 13.7764 455.245 13.8373C455.097 13.8982 454.939 13.9293 454.779 13.9287Z" fill="#3F3D56"/>
<path d="M445.617 50.1113H61.625V253.556H445.617V50.1113Z" fill="#F1F1F1"/>
<path d="M445.617 88.1927V86.1976H370.869V50.1113H368.874V86.1976H294.125V50.1113H292.13V86.1976H217.382V50.1113H215.387V86.1976H140.639V50.1113H138.644V86.1976H61.625V88.1927H138.644V128.059H61.625V130.054H138.644V169.92H61.625V171.915H138.644V211.774H61.625V213.769H138.644V253.556H140.639V213.769H215.387V253.556H217.382V213.769H292.13V253.556H294.125V213.769H368.874V253.556H370.869V213.769H445.617V211.774H370.869V171.915H445.617V169.92H370.869V130.054H445.617V128.059H370.869V88.1928L445.617 88.1927ZM215.387 211.774H140.639V171.915H215.387V211.774ZM215.387 169.92H140.639V130.054H215.387V169.92ZM215.387 128.059H140.639V88.1928H215.387V128.059ZM292.13 211.774H217.382V171.915H292.13V211.774ZM292.13 169.92H217.382V130.054H292.13V169.92ZM292.13 128.059H217.382V88.1928H292.13V128.059ZM368.874 211.774H294.125V171.915H368.874V211.774ZM368.874 169.92H294.125V130.054H368.874V169.92ZM368.874 128.059H294.125V88.1929H368.874V128.059Z" fill="white"/>
<path d="M181.195 97.8887H155.506V122.759H181.195V97.8887Z" fill="#CACACA"/>
<path d="M417.709 178.418H392.02V203.288H417.709V178.418Z" fill="#CACACA"/>
<path d="M189.176 219.771H163.486V244.642H189.176V219.771Z" fill="#CACACA"/>
<path d="M196.769 93.2734H171.08V118.144H196.769V93.2734Z" fill="#F7941D"/>
<path d="M317.529 196.655L348.014 169.494L357.007 173.95L320.445 212.299L317.529 196.655Z" fill="#FFB6B6"/>
<path d="M352.025 178.828C356.031 178.828 359.28 175.58 359.28 171.573C359.28 167.567 356.031 164.318 352.025 164.318C348.018 164.318 344.77 167.567 344.77 171.573C344.77 175.58 348.018 178.828 352.025 178.828Z" fill="#FFB6B6"/>
<path d="M288.995 401.085H281.781L278.35 373.262L288.996 373.262L288.995 401.085Z" fill="#FFB6B6"/>
<path d="M290.833 408.078L267.574 408.077V407.783C267.574 405.382 268.528 403.08 270.226 401.382C271.924 399.684 274.226 398.731 276.627 398.73H276.628L290.833 398.731L290.833 408.078Z" fill="#2F2E41"/>
<path d="M262.876 401.085H255.662L252.23 373.262L262.876 373.262L262.876 401.085Z" fill="#FFB6B6"/>
<path d="M264.716 408.078L241.457 408.077V407.783C241.457 405.382 242.411 403.08 244.109 401.382C245.806 399.684 248.109 398.731 250.51 398.73H250.51L264.716 398.731L264.716 408.078Z" fill="#2F2E41"/>
<path d="M295.052 242.043C295.052 242.043 313.19 240.592 307.386 272.514C301.582 304.436 289.559 391.758 289.559 391.758L278.66 393.256L272.221 276.771L267.349 393.256L253.487 391.758L239.914 266.71C239.914 266.71 235.556 256.656 239.912 249.712C244.267 242.769 295.052 242.043 295.052 242.043Z" fill="#2F2E41"/>
<path d="M283.445 162.965L288.481 160.267C288.481 160.267 300.888 159.209 305.951 173.783L319.379 194.065L341.144 175.202L350.576 181.731L323.145 214.469L311.74 215.926L287.073 184.004L283.445 162.965Z" fill="#3F3D56"/>
<path d="M265.172 104.104C244.483 104.104 238.691 126.831 238.691 139.653C238.691 152.475 250.547 150.535 265.172 150.535C271.449 150.535 277.213 150.89 281.751 150.284L283.934 144.954L285.691 149.37C289.416 148.001 291.653 145.219 291.653 139.653C291.653 126.831 286.574 104.104 265.172 104.104Z" fill="#2F2E41"/>
<path d="M265.083 150.513C274.924 150.513 282.902 142.535 282.902 132.694C282.902 122.853 274.924 114.875 265.083 114.875C255.242 114.875 247.264 122.853 247.264 132.694C247.264 142.535 255.242 150.513 265.083 150.513Z" fill="#FFB6B6"/>
<path d="M244.494 130.947H251.542L254.651 122.241L255.273 130.947H258.641L260.455 125.868L260.818 130.947H285.848C285.848 125.944 283.86 121.146 280.323 117.609C276.785 114.071 271.987 112.084 266.985 112.084H263.357C258.354 112.084 253.556 114.071 250.019 117.609C246.481 121.146 244.494 125.944 244.494 130.947Z" fill="#2F2E41"/>
<path d="M363.633 144.059H337.943V168.929H363.633V144.059Z" fill="#F7941D"/>
<path d="M300.69 235.479C297.954 235.514 289.713 186.616 289.713 186.616L288.48 160.266L279.476 159.963V159.371C279.476 158.182 279.003 157.041 278.162 156.2C277.321 155.359 276.181 154.887 274.991 154.887H257.842C256.703 154.887 255.607 155.322 254.776 156.102C253.946 156.882 253.444 157.949 253.372 159.086L246.311 158.849L234.082 197.702C234.082 197.702 245.351 233.803 239.912 249.712C239.912 249.712 292.901 254.263 303.045 244.163C303.045 244.163 303.426 235.443 300.69 235.479Z" fill="#3F3D56"/>
<path d="M249.346 163.691L246.311 158.85C246.311 158.85 236.437 156.409 232.372 162.952C228.306 169.495 216.357 204.948 216.357 204.948L228.691 209.301L242.687 189.679L249.346 163.691Z" fill="#3F3D56"/>
<path d="M280.201 189.039H254.512V213.909H280.201V189.039Z" fill="#F7941D"/>
<path d="M234.803 198.028L225.866 197.082C225.302 198.286 225.019 199.603 225.038 200.932C225.058 202.262 225.379 203.569 225.979 204.756C226.578 205.943 227.44 206.978 228.499 207.783C229.557 208.588 230.785 209.141 232.089 209.401L267.452 216.459L263.763 205.099L234.803 198.028Z" fill="#FFB6B6"/>
<path d="M267.558 216.59C271.565 216.59 274.813 213.342 274.813 209.335C274.813 205.328 271.565 202.08 267.558 202.08C263.551 202.08 260.303 205.328 260.303 209.335C260.303 213.342 263.551 216.59 267.558 216.59Z" fill="#FFB6B6"/>
<path d="M258.5 216.812L231.559 210.656C229.607 210.204 227.804 209.256 226.326 207.904C224.848 206.551 223.743 204.84 223.12 202.936L222.031 199.578L229.023 194.076L261.056 203.029L258.5 216.812Z" fill="#3F3D56"/>
<path d="M409.891 409.537H133.475C133.283 409.537 133.099 409.46 132.963 409.324C132.826 409.188 132.75 409.004 132.75 408.811C132.75 408.619 132.826 408.434 132.963 408.298C133.099 408.162 133.283 408.086 133.475 408.086H409.891C410.083 408.086 410.267 408.162 410.404 408.298C410.54 408.434 410.616 408.619 410.616 408.811C410.616 409.004 410.54 409.188 410.404 409.324C410.267 409.46 410.083 409.537 409.891 409.537Z" fill="#CACACA"/>
<circle cx="70.5" cy="373.215" r="70.5" fill="white"/>
</svg>
