<svg width="14" height="13" viewBox="0 0 14 13" fill="none" xmlns="http://www.w3.org/2000/svg">
<path d="M7.08283 12.8234C10.5555 12.8234 13.3707 10.0082 13.3707 6.53547C13.3707 3.06275 10.5555 0.247559 7.08283 0.247559C3.61011 0.247559 0.794922 3.06275 0.794922 6.53547C0.794922 10.0082 3.61011 12.8234 7.08283 12.8234Z" fill="white"/>
<path d="M5.93018 9.41762C5.72648 9.41762 5.76109 9.34071 5.69084 9.14675L5.0918 7.17525L9.70293 4.4397" fill="#9A9A9A"/>
<path d="M5.92969 9.41726C6.08689 9.41726 6.15634 9.34537 6.24408 9.26006L7.08247 8.44483L6.03669 7.81421" fill="#A7A7A7"/>
<path d="M6.03809 7.81457L8.57211 9.68674C8.86128 9.84629 9.06998 9.76368 9.14201 9.41827L10.1735 4.55756C10.2791 4.13417 10.0121 3.94213 9.73546 4.06772L3.67863 6.40321C3.2652 6.56904 3.26761 6.7997 3.60327 6.90247L5.15759 7.3876L8.756 5.1174C8.92588 5.01439 9.08179 5.06977 8.95382 5.18334" fill="url(#paint0_linear_494_10157)"/>
<defs>
<linearGradient id="paint0_linear_494_10157" x1="7.87022" y1="6.53544" x2="8.85422" y2="8.77461" gradientUnits="userSpaceOnUse">
<stop stop-color="#13349A"/>
<stop offset="1" stop-color="#587BE8"/>
</linearGradient>
</defs>
</svg>
