<svg width="13" height="11" viewBox="0 0 13 11" fill="none" xmlns="http://www.w3.org/2000/svg">
<path d="M12.6305 1.30972C12.1684 1.52015 11.6709 1.66245 11.149 1.72604C11.682 1.39904 12.0909 0.880532 12.2836 0.262869C11.7846 0.565645 11.2332 0.785915 10.6441 0.903998C10.1747 0.390035 9.50371 0.0690918 8.76114 0.0690918C7.33725 0.0690918 6.18205 1.2537 6.18205 2.7146C6.18205 2.922 6.20419 3.12335 6.24848 3.31712C4.10416 3.20661 2.20343 2.15446 0.93013 0.55202C0.707948 0.944115 0.580986 1.39904 0.580986 1.88348C0.580986 2.80089 1.03642 3.61082 1.72881 4.08542C1.30659 4.07255 0.907986 3.9522 0.55958 3.75539V3.78794C0.55958 5.0702 1.44905 6.13976 2.63008 6.38198C2.41381 6.44405 2.18572 6.47508 1.95025 6.47508C1.78417 6.47508 1.62177 6.45919 1.46455 6.42815C1.79302 7.47879 2.74523 8.24405 3.8746 8.26449C2.99178 8.9745 1.87865 9.39763 0.670302 9.39763C0.462145 9.39763 0.256202 9.38552 0.0546875 9.3613C1.1966 10.1107 2.55332 10.5489 4.00968 10.5489C8.75597 10.5489 11.3506 6.51823 11.3506 3.02192C11.3506 2.90686 11.3483 2.79181 11.3439 2.67902C11.8481 2.30585 12.2858 1.84033 12.6305 1.30972" fill="white"/>
</svg>
