<svg width="14" height="15" viewBox="0 0 14 15" fill="none" xmlns="http://www.w3.org/2000/svg">
<path d="M7.02444 0.938477C3.34714 0.938477 0.355469 3.93018 0.355469 7.60749C0.355469 11.2848 3.34714 14.2765 7.02444 14.2765C10.7017 14.2765 13.6934 11.2848 13.6934 7.60749C13.6934 3.93018 10.7017 0.938477 7.02444 0.938477ZM5.99567 1.61609C5.45433 2.07953 4.93609 2.65647 4.51974 3.27063C4.33224 3.54724 4.16366 3.83285 4.01397 4.12579H2.04435C2.95722 2.82395 4.36678 1.89494 5.99567 1.61609ZM1.67844 4.71591H3.74232C3.39793 5.5536 3.20303 6.44035 3.16817 7.34351H0.951686C0.992364 6.39578 1.25072 5.50352 1.67844 4.71591ZM0.9544 7.93363H3.16794C3.20189 8.85095 3.39486 9.7296 3.74401 10.5612H1.71314C1.27444 9.77551 1.00484 8.88321 0.9544 7.93363ZM2.08845 11.1513H4.02235C4.16984 11.4326 4.33582 11.708 4.52084 11.977C5.01174 12.6908 5.53939 13.2217 5.98505 13.597C4.38669 13.3205 3.0003 12.4177 2.08845 11.1513ZM6.72938 13.4328C6.07026 12.9501 5.29433 12.1802 4.69985 11.1513H6.72938V13.4328ZM6.72938 10.5612H4.39361C4.04214 9.79943 3.7994 8.92066 3.75865 7.93359H6.72934L6.72938 10.5612ZM6.72938 7.34351H3.75865C3.79539 6.42607 4.0041 5.54695 4.38157 4.71591H6.72938V7.34351ZM6.72938 4.12579H4.68261C4.78317 3.94867 4.89152 3.77392 5.0082 3.60176C5.61571 2.70557 6.28164 2.11871 6.72938 1.78616V4.12579ZM13.0972 7.34351H10.8807C10.8458 6.44035 10.6509 5.5536 10.3065 4.71591H12.3704C12.7981 5.50352 13.0565 6.39578 13.0972 7.34351ZM12.0045 4.12579H10.035C9.88526 3.83285 9.71664 3.54724 9.52918 3.27063C9.11283 2.65643 8.59443 2.07965 8.05306 1.61605C9.68198 1.8949 11.0916 2.82391 12.0045 4.12579ZM7.3195 1.78612C7.76724 2.11868 8.43317 2.70553 9.04068 3.60172C9.15737 3.77388 9.26571 3.94863 9.36627 4.12575H7.3195V1.78612ZM7.3195 4.71591H9.66731C10.0448 5.54695 10.2535 6.42607 10.2902 7.34351H7.3195V4.71591ZM7.3195 7.93363H10.2902C10.2495 8.9207 10.0067 9.79947 9.65523 10.5612H7.31946L7.3195 7.93363ZM7.3195 11.1513H9.34904C8.75455 12.1802 7.97863 12.9501 7.3195 13.4328V11.1513ZM8.06392 13.597C8.50954 13.2217 9.03714 12.6907 9.528 11.977C9.71302 11.708 9.879 11.4326 10.0265 11.1514H11.9604C11.0486 12.4177 9.66223 13.3205 8.06392 13.597ZM12.3357 10.5612H10.3048C10.654 9.72956 10.847 8.85095 10.8809 7.93359H13.0944C13.044 8.88321 12.7744 9.77551 12.3357 10.5612Z" fill="white"/>
</svg>
