<svg width="13" height="10" viewBox="0 0 13 10" fill="none" xmlns="http://www.w3.org/2000/svg">
<path fill-rule="evenodd" clip-rule="evenodd" d="M12.0049 1.02105C12.3817 1.41289 12.5047 2.30271 12.5047 2.30271C12.5047 2.30271 12.6305 3.34788 12.6305 4.39265V5.37245C12.6305 6.41763 12.5047 7.4624 12.5047 7.4624C12.5047 7.4624 12.3817 8.35221 12.0049 8.74405C11.574 9.20759 11.0962 9.25548 10.8261 9.28255C10.7964 9.28553 10.7693 9.28826 10.7449 9.29126C8.98509 9.422 6.3426 9.42604 6.3426 9.42604C6.3426 9.42604 3.07288 9.39537 2.06682 9.2961C2.01915 9.28696 1.96137 9.27984 1.89593 9.27178C1.57725 9.23253 1.07707 9.17092 0.679941 8.74405C0.30306 8.35221 0.180446 7.4624 0.180446 7.4624C0.180446 7.4624 0.0546875 6.41763 0.0546875 5.37245V4.39265C0.0546875 3.34788 0.180446 2.30271 0.180446 2.30271C0.180446 2.30271 0.30306 1.41289 0.679941 1.02105C1.11179 0.556865 1.59002 0.509489 1.86009 0.482734C1.88937 0.479833 1.91621 0.477175 1.94027 0.474254C3.7001 0.343506 6.33984 0.343506 6.33984 0.343506H6.34535C6.34535 0.343506 8.98509 0.343506 10.7449 0.474254C10.769 0.477179 10.7958 0.479841 10.8251 0.482747C11.095 0.509504 11.5734 0.55694 12.0049 1.02105ZM5.04409 2.93084L5.04448 6.55909L8.44192 4.75122L5.04409 2.93084Z" fill="white"/>
</svg>
